<svg xmlns="http://www.w3.org/2000/svg" viewBox="0 0 154.3 41.4"><style>.st0{fill:#E75120;} .st1{fill:#E85223;} .st2{fill:#636A75;} .st3{fill:#636A74;}</style><g id="Calque_1"><path d="M16.3 32C5.9 32 2.4 24.1 1.6 21.8h7.6c.6.9 2.8 3.8 7.3 3.9 4.5 0 7.4-4.3 8.3-5.7l6 2.4c-1.1 2-5.4 9.6-14.5 9.6z" class="st0"/><path d="M24.9 20.6l5.1 2.1c-1.3 2.4-5.4 8.8-13.7 8.8-9.4 0-12.9-6.4-14-9.2h6.6c.8 1.2 3.2 3.8 7.6 3.9 4.3 0 7.3-3.9 8.4-5.6m-.4-1.2s-3.1 5.8-8 5.8c-5 0-7-3.9-7-3.9H.9s2.8 11.2 15.4 11.2c10.8 0 15.1-10.3 15.1-10.3l-6.9-2.8z" class="st1"/><path d="M122.1 31.9c1.5-2.4 2.4-5.3 2.4-8.3 0-8.4-6.4-14.9-14.5-14.9s-14.5 6.6-14.5 14.9c0 3 .8 5.8 2.4 8.3h-9.2c0-.1-.1-.2-.1-.3-1-2.5-1.5-5.2-1.5-8 0-12.5 10.1-22.3 22.9-22.3 12.9 0 23 9.8 23 22.3 0 2.8-.5 5.5-1.4 8 0 .1-.1.2-.1.3h-9.4z" class="st0"/><path d="M110 1.8c6.2 0 11.9 2.2 16.1 6.3 4.1 4 6.4 9.5 6.4 15.5 0 2.7-.5 5.3-1.4 7.8H123c1.3-2.3 2-5 2-7.8 0-8.7-6.6-15.4-15-15.4S95 15 95 23.6c0 2.8.7 5.4 2 7.8h-8c-.9-2.5-1.4-5.1-1.4-7.8 0-12.2 9.8-21.8 22.4-21.8m0-1c-13.3 0-23.4 10-23.4 22.8 0 2.9.5 5.7 1.5 8.2.1.2.2.4.2.6h10.5c-.2-.2-.4-.5-.5-.8-1.5-2.3-2.3-5.1-2.3-8 0-7.8 5.8-14.4 14-14.4 8.1 0 14 6.6 14 14.4 0 3-.8 5.8-2.3 8.1-.1.2-.3.5-.5.7h10.6c.1-.2.2-.4.2-.6 1-2.5 1.5-5.3 1.5-8.2C133.5 10.8 123.4.8 110 .8z" class="st1"/></g><g id="Gris"><path d="M46.9 31.5c-4.7 0-9.8-2.9-10.9-8.5h6.2c.1.3.3.6.5.9 1 1.2 2.4 1.8 3.9 1.8 1 0 2.1-.3 3-.9.7-.4 1-1 1-1.9 0-.5-.2-1.2-1.3-1.7-1.1-.4-2.3-.6-3.5-.8-.7-.1-1.4-.2-2.1-.4l-.4-.1c-1.3-.3-2.6-.6-3.8-1.2-3.2-1.5-4.5-4.4-3.5-7.9 1.1-3.8 5.2-6.4 9.9-6.4H47c4.4.4 8.2 3.8 8.8 7.9h-6.2l-.9-.9c-1-.9-2.2-1.4-3.2-1.4-.6 0-1.1.2-1.6.5s-1.1.8-1.1 2c0 .9.9 1.4 1.5 1.6 1 .3 2.1.5 3.1.7l1.5.3.4.1c.7.2 1.4.3 2 .5 3.4 1.2 5.1 2.9 5.4 5.6.4 3.6-.8 6.2-3.5 8.1-1.7 1.4-4 2.1-6.3 2.1z" class="st2"/><path d="M46.1 4.9h1.1c4 .3 7.4 3.3 8.3 6.9h-5.3l-.8-.8c-1.1-1-2.4-1.6-3.5-1.6-.7 0-1.3.2-1.9.6-.3.2-1.3.9-1.3 2.4 0 1.1 1.1 1.9 1.8 2.1 1 .3 2.1.5 3.1.7l1.5.3.4.1c.7.2 1.4.3 2 .5 3.2 1.1 4.8 2.7 5 5.2.4 3.4-.7 5.8-3.3 7.6-1.9 1.3-4 1.9-6.3 1.9-4.3 0-9-2.6-10.3-7.5h5.3c.1.2.3.5.5.7 1.1 1.3 2.6 2 4.3 2 1.1 0 2.3-.3 3.2-.9.8-.5 1.2-1.2 1.3-2.3 0-.6-.2-1.6-1.6-2.2-1.2-.5-2.4-.7-3.6-.9-.7-.1-1.4-.2-2-.4l-.4-.1c-1.3-.3-2.5-.6-3.7-1.1-3-1.4-4.2-4.1-3.3-7.3 1.1-3.4 5-5.9 9.5-5.9m0-1c-4.9 0-9.2 2.7-10.4 6.8-1.1 3.7.3 6.9 3.8 8.5 1.3.6 2.8.9 4.2 1.3 1.8.5 3.7.6 5.5 1.2.3.1 1 .4 1 1.2 0 .8-.3 1.2-.8 1.5-.8.5-1.7.8-2.7.8-1.2 0-2.5-.5-3.5-1.6-.3-.3-.6-1-.6-1h-7.2c.8 5.9 6 9.5 11.5 9.5 2.3 0 4.7-.7 6.8-2.1 3-2.1 4.1-5 3.7-8.5-.4-3.4-2.8-5-5.7-6-.8-.3-1.7-.5-2.5-.7-1.5-.3-3-.6-4.5-1-.5-.1-1.1-.6-1.1-1.1 0-.9.5-1.3.9-1.6.4-.3.9-.4 1.3-.4 1 0 2 .6 2.9 1.3.6.5 1 1 1 1h7c-.4-4.6-4.5-8.5-9.4-8.9-.4-.2-.8-.2-1.2-.2z" class="st3"/><path d="M1.2 20.8c-.4-1.4-.7-3.3-.7-4.6C.5 7.5 7.5.5 16.2.5c7 0 13.5 5.4 15.2 12.5l-22 7.8H1.2zM16.1 6.7c-1.3 0-2.6.3-3.8.8-4.8 2.1-5.6 6.7-5.6 6.9l-.1.8.8-.3c.6-.2 13.9-4.8 14.9-5.2l.6-.2-.5-.5c-.5-.8-3.2-2.3-6.3-2.3z" class="st2"/><path d="M16.2 1C22.9 1 29 6 30.8 12.7L9.3 20.3H1.6C1.3 19 1 17.4 1 16.2 1 7.8 7.8 1 16.2 1M5.9 15.9l1.6-.5c.6-.2 13.9-4.8 14.9-5.2l1.1-.5-.7-1c-.6-.9-3.4-2.5-6.7-2.5-1.4 0-2.8.3-4 .8-5.1 2.2-5.9 7.1-5.9 7.3l-.3 1.6M16.2 0C7.2 0 0 7.2 0 16.2c0 1.6.4 3.7.8 5.1h8.6L32 13.4C30.5 6.1 24 0 16.2 0zm-9 14.5S7.9 10 12.5 8c1.3-.5 2.5-.8 3.6-.8 3.1 0 5.5 1.5 5.9 2.1-1 .4-14.8 5.2-14.8 5.2z" class="st3"/><path d="M137.1 31.3l.1-22.6c0-1.1.8-2.5 1.8-2.9 1.1-.5 2-.7 2-.7 1.5-.3 3.1-.5 4.8-.5.6 0 1.3 0 2 .1 2.1.2 4.3.5 5.9 1l-1.3 3.1L151 12h-.1c-.3 0-.5 0-.8-.1-.4 0-.9-.1-1.3-.1-1 0-2.5.1-3.6 1.2-.9.9-1.3 2.4-1.3 4.5v13.9h-6.8z" class="st2"/><path d="M145.7 5.1c.6 0 1.3 0 1.9.1 1.8.1 3.8.5 5.3.8-.4 1-.7 1.7-1.1 2.6-.3.8-.7 1.6-1 2.4l-.2.4h-.5c-.5 0-.9-.1-1.3-.1-1.1 0-2.8.1-3.9 1.3-1 1-1.5 2.6-1.5 4.8v13.4h-5.9l.1-22.1c0-.9.7-2.1 1.5-2.5 1-.5 1.8-.7 1.8-.7 1.6-.3 3.2-.4 4.8-.4m0-1c-1.8 0-3.5.2-4.9.5 0 0-1 .2-2.1.7-1.1.5-2 2.1-2 3.4l-.1 23.1h7.9V17.4c0-4.2 1.7-5.1 4.4-5.1.4 0 .8 0 1.2.1.4 0 .8.1 1.2.1.5-1.2 1-2.4 1.5-3.5.5-1.2.8-2 1.5-3.6-1.7-.6-4.4-1-6.6-1.2-.6-.1-1.3-.1-2-.1z" class="st3"/><path d="M94.1 36.1h31.5V41H94.1z" class="st2"/><path d="M125.2 36.6v3.9H94.6v-3.9h30.6m1-1H93.6v5.9h32.5v-5.9h.1z" class="st3"/><path d="M72.4 31.5c-4.7 0-9.8-2.9-10.9-8.5h6.2c.1.3.3.6.5.9 1 1.2 2.4 1.8 3.9 1.8 1 0 2.1-.3 3-.9.7-.4 1-1 1-1.9 0-.5-.2-1.2-1.3-1.7-1.1-.4-2.3-.6-3.5-.8-.7-.1-1.4-.2-2.1-.4l-.4-.1c-1.3-.3-2.6-.6-3.8-1.2-3.2-1.5-4.5-4.4-3.5-7.9 1.1-3.8 5.2-6.4 9.9-6.4h1.1c4.4.4 8.2 3.8 8.8 7.9h-6.2l-.9-.9c-1-.9-2.2-1.4-3.2-1.4-.6 0-1.1.2-1.6.5s-1.1.8-1.1 2c0 .9.9 1.4 1.5 1.6 1 .3 2 .5 3.1.7l1.5.3.4.1c.7.2 1.4.3 2 .5 3.4 1.2 5.1 2.9 5.4 5.6.4 3.6-.8 6.2-3.5 8.1-1.7 1.4-4 2.1-6.3 2.1z" class="st2"/><path d="M71.6 4.9h1.1c4 .3 7.4 3.3 8.3 6.9h-5.3l-.8-.8c-1.1-1-2.4-1.6-3.5-1.6-.7 0-1.3.2-1.9.6-.3.2-1.3.9-1.3 2.4 0 1.1 1.1 1.9 1.8 2.1 1 .3 2.1.5 3.1.7l1.5.3.4.1c.7.2 1.4.3 2 .5 3.2 1.1 4.8 2.7 5 5.2.4 3.4-.7 5.8-3.3 7.6-1.9 1.3-4 1.9-6.3 1.9-4.3 0-9-2.6-10.3-7.5h5.3c.1.2.3.5.5.7 1.1 1.3 2.6 2 4.3 2 1.1 0 2.3-.3 3.2-.9.8-.5 1.2-1.2 1.3-2.3 0-.6-.2-1.6-1.6-2.2-1.2-.5-2.4-.7-3.6-.9-.7-.1-1.4-.2-2-.4l-.4-.1c-1.3-.3-2.5-.6-3.7-1.1-3-1.4-4.2-4.1-3.3-7.3 1.1-3.5 4.9-5.9 9.5-5.9m0-1c-4.9 0-9.2 2.7-10.4 6.8-1.1 3.7.3 6.9 3.8 8.5 1.3.6 2.8.9 4.2 1.3 1.8.5 3.7.6 5.5 1.2.3.1 1 .4 1 1.2 0 .8-.3 1.2-.8 1.5-.8.5-1.7.8-2.7.8-1.2 0-2.5-.5-3.5-1.6-.3-.3-.6-1-.6-1h-7.2c.8 5.9 6 9.5 11.5 9.5 2.3 0 4.7-.7 6.8-2.1 3-2.1 4.1-5 3.7-8.5-.4-3.4-2.8-5-5.7-6-.8-.3-1.7-.5-2.5-.7-1.5-.3-3-.6-4.5-1-.5-.1-1.1-.6-1.1-1.1 0-.9.5-1.3.9-1.6.4-.3.9-.4 1.3-.4 1 0 2 .6 2.9 1.3.6.5 1 1 1 1h7c-.4-4.6-4.5-8.5-9.4-8.9-.4-.2-.8-.2-1.2-.2z" class="st3"/><path d="M.5 38.1h82v.6H.5z" class="st2"/><path d="M83 37.6H0v1.7h83v-1.7z" class="st3"/><path d="M137.1 38.1h16.7v.6h-16.7z" class="st2"/><path d="M154.3 37.6h-17.7v1.7h17.7v-1.7z" class="st3"/></g></svg>